<mxfile host="app.diagrams.net" agent="Mozilla/5.0 (Windows NT 10.0; Win64; x64) AppleWebKit/537.36 (KHTML, like Gecko) Chrome/129.0.0.0 Safari/537.36 Edg/129.0.0.0" version="24.7.16">
  <diagram name="Page-1" id="nFTgC22LPJVEwZwPT_4b">
    <mxGraphModel dx="1584" dy="877" grid="1" gridSize="10" guides="1" tooltips="1" connect="1" arrows="1" fold="1" page="1" pageScale="1" pageWidth="827" pageHeight="1169" math="0" shadow="0">
      <root>
        <mxCell id="0" />
        <mxCell id="1" parent="0" />
        <mxCell id="zPxOFNK9UEFsvBm9alW0-1" value="" style="rounded=0;whiteSpace=wrap;html=1;" vertex="1" parent="1">
          <mxGeometry x="40" y="120" width="760" height="600" as="geometry" />
        </mxCell>
        <mxCell id="zPxOFNK9UEFsvBm9alW0-4" value="" style="rounded=0;whiteSpace=wrap;html=1;" vertex="1" parent="1">
          <mxGeometry x="40" y="120" width="760" height="20" as="geometry" />
        </mxCell>
        <mxCell id="zPxOFNK9UEFsvBm9alW0-5" value="" style="rounded=0;whiteSpace=wrap;html=1;" vertex="1" parent="1">
          <mxGeometry x="760" y="120" width="20" height="20" as="geometry" />
        </mxCell>
        <mxCell id="zPxOFNK9UEFsvBm9alW0-6" value="" style="rounded=0;whiteSpace=wrap;html=1;" vertex="1" parent="1">
          <mxGeometry x="740" y="120" width="20" height="20" as="geometry" />
        </mxCell>
        <mxCell id="zPxOFNK9UEFsvBm9alW0-8" value="" style="shape=mxgraph.sysml.x;" vertex="1" parent="1">
          <mxGeometry x="780" y="120" width="20" height="20" as="geometry" />
        </mxCell>
        <mxCell id="zPxOFNK9UEFsvBm9alW0-9" value="" style="rounded=0;whiteSpace=wrap;html=1;" vertex="1" parent="1">
          <mxGeometry x="765" y="125" width="10" height="10" as="geometry" />
        </mxCell>
        <mxCell id="zPxOFNK9UEFsvBm9alW0-10" value="" style="endArrow=none;html=1;rounded=0;entryX=1;entryY=0.5;entryDx=0;entryDy=0;exitX=0;exitY=0.5;exitDx=0;exitDy=0;" edge="1" parent="1" source="zPxOFNK9UEFsvBm9alW0-6" target="zPxOFNK9UEFsvBm9alW0-6">
          <mxGeometry width="50" height="50" relative="1" as="geometry">
            <mxPoint x="740" y="135" as="sourcePoint" />
            <mxPoint x="790" y="85" as="targetPoint" />
          </mxGeometry>
        </mxCell>
        <mxCell id="zPxOFNK9UEFsvBm9alW0-11" value="&lt;font style=&quot;font-size: 13px;&quot;&gt;&lt;b&gt;Pigment - PaintLite&lt;/b&gt;&lt;/font&gt;" style="text;html=1;align=center;verticalAlign=middle;whiteSpace=wrap;rounded=0;" vertex="1" parent="1">
          <mxGeometry x="339" y="120" width="150" height="20" as="geometry" />
        </mxCell>
        <mxCell id="zPxOFNK9UEFsvBm9alW0-16" style="edgeStyle=orthogonalEdgeStyle;rounded=0;orthogonalLoop=1;jettySize=auto;html=1;exitX=1;exitY=0.5;exitDx=0;exitDy=0;entryX=1;entryY=0.5;entryDx=0;entryDy=0;" edge="1" parent="1" source="zPxOFNK9UEFsvBm9alW0-12" target="zPxOFNK9UEFsvBm9alW0-14">
          <mxGeometry relative="1" as="geometry" />
        </mxCell>
        <mxCell id="zPxOFNK9UEFsvBm9alW0-12" value="" style="rounded=0;whiteSpace=wrap;html=1;" vertex="1" parent="1">
          <mxGeometry x="40" y="120" width="60" height="20" as="geometry" />
        </mxCell>
        <mxCell id="zPxOFNK9UEFsvBm9alW0-13" value="" style="rounded=0;whiteSpace=wrap;html=1;" vertex="1" parent="1">
          <mxGeometry x="100" y="120" width="60" height="20" as="geometry" />
        </mxCell>
        <mxCell id="zPxOFNK9UEFsvBm9alW0-14" value="File" style="text;html=1;align=center;verticalAlign=middle;whiteSpace=wrap;rounded=0;" vertex="1" parent="1">
          <mxGeometry x="40" y="120" width="60" height="20" as="geometry" />
        </mxCell>
        <mxCell id="zPxOFNK9UEFsvBm9alW0-15" value="Edit" style="text;html=1;align=center;verticalAlign=middle;whiteSpace=wrap;rounded=0;" vertex="1" parent="1">
          <mxGeometry x="100" y="120" width="60" height="20" as="geometry" />
        </mxCell>
        <mxCell id="zPxOFNK9UEFsvBm9alW0-17" value="" style="rounded=0;whiteSpace=wrap;html=1;" vertex="1" parent="1">
          <mxGeometry x="40" y="140" width="760" height="70" as="geometry" />
        </mxCell>
        <mxCell id="zPxOFNK9UEFsvBm9alW0-18" value="" style="rounded=0;whiteSpace=wrap;html=1;" vertex="1" parent="1">
          <mxGeometry x="680" y="210" width="120" height="510" as="geometry" />
        </mxCell>
        <mxCell id="zPxOFNK9UEFsvBm9alW0-20" value="" style="rounded=0;whiteSpace=wrap;html=1;" vertex="1" parent="1">
          <mxGeometry x="130" y="210" width="550" height="510" as="geometry" />
        </mxCell>
        <mxCell id="zPxOFNK9UEFsvBm9alW0-21" value="" style="rounded=0;whiteSpace=wrap;html=1;" vertex="1" parent="1">
          <mxGeometry x="700" y="300" width="30" height="350" as="geometry" />
        </mxCell>
        <mxCell id="zPxOFNK9UEFsvBm9alW0-22" value="" style="rounded=0;whiteSpace=wrap;html=1;" vertex="1" parent="1">
          <mxGeometry x="750" y="300" width="30" height="350" as="geometry" />
        </mxCell>
        <mxCell id="zPxOFNK9UEFsvBm9alW0-24" value="" style="line;strokeWidth=2;direction=south;html=1;" vertex="1" parent="1">
          <mxGeometry x="710" y="310" width="10" height="330" as="geometry" />
        </mxCell>
        <mxCell id="zPxOFNK9UEFsvBm9alW0-25" value="" style="line;strokeWidth=2;direction=south;html=1;" vertex="1" parent="1">
          <mxGeometry x="760" y="310" width="10" height="330" as="geometry" />
        </mxCell>
        <mxCell id="zPxOFNK9UEFsvBm9alW0-26" value="" style="line;strokeWidth=2;html=1;" vertex="1" parent="1">
          <mxGeometry x="706.25" y="470" width="17.5" height="10" as="geometry" />
        </mxCell>
        <mxCell id="zPxOFNK9UEFsvBm9alW0-27" value="" style="line;strokeWidth=2;html=1;" vertex="1" parent="1">
          <mxGeometry x="755" y="470" width="20" height="10" as="geometry" />
        </mxCell>
        <mxCell id="zPxOFNK9UEFsvBm9alW0-28" value="" style="rounded=0;whiteSpace=wrap;html=1;fillColor=#2EFFCE;" vertex="1" parent="1">
          <mxGeometry x="690" y="220" width="100" height="60" as="geometry" />
        </mxCell>
        <mxCell id="zPxOFNK9UEFsvBm9alW0-31" value="" style="rounded=0;whiteSpace=wrap;html=1;" vertex="1" parent="1">
          <mxGeometry x="685" y="660" width="110" height="25" as="geometry" />
        </mxCell>
        <mxCell id="zPxOFNK9UEFsvBm9alW0-30" value="#%02x%02x%02x" style="text;html=1;align=center;verticalAlign=middle;whiteSpace=wrap;rounded=0;" vertex="1" parent="1">
          <mxGeometry x="685" y="660" width="110" height="25" as="geometry" />
        </mxCell>
        <mxCell id="zPxOFNK9UEFsvBm9alW0-32" value="" style="rounded=0;whiteSpace=wrap;html=1;" vertex="1" parent="1">
          <mxGeometry x="720" y="690" width="40" height="20" as="geometry" />
        </mxCell>
        <mxCell id="zPxOFNK9UEFsvBm9alW0-35" value="" style="rounded=0;whiteSpace=wrap;html=1;" vertex="1" parent="1">
          <mxGeometry x="40" y="40" width="60" height="80" as="geometry" />
        </mxCell>
        <mxCell id="zPxOFNK9UEFsvBm9alW0-38" value="" style="rounded=0;whiteSpace=wrap;html=1;" vertex="1" parent="1">
          <mxGeometry x="40" y="60" width="60" height="20" as="geometry" />
        </mxCell>
        <mxCell id="zPxOFNK9UEFsvBm9alW0-39" value="" style="rounded=0;whiteSpace=wrap;html=1;" vertex="1" parent="1">
          <mxGeometry x="40" y="100" width="60" height="20" as="geometry" />
        </mxCell>
        <mxCell id="zPxOFNK9UEFsvBm9alW0-41" value="New" style="text;html=1;align=center;verticalAlign=middle;whiteSpace=wrap;rounded=0;" vertex="1" parent="1">
          <mxGeometry x="40" y="40" width="60" height="20" as="geometry" />
        </mxCell>
        <mxCell id="zPxOFNK9UEFsvBm9alW0-42" value="Open" style="text;html=1;align=center;verticalAlign=middle;whiteSpace=wrap;rounded=0;" vertex="1" parent="1">
          <mxGeometry x="40" y="60" width="60" height="20" as="geometry" />
        </mxCell>
        <mxCell id="zPxOFNK9UEFsvBm9alW0-43" value="Save" style="text;html=1;align=center;verticalAlign=middle;whiteSpace=wrap;rounded=0;" vertex="1" parent="1">
          <mxGeometry x="40" y="80" width="60" height="20" as="geometry" />
        </mxCell>
        <mxCell id="zPxOFNK9UEFsvBm9alW0-44" value="Save as" style="text;html=1;align=center;verticalAlign=middle;whiteSpace=wrap;rounded=0;" vertex="1" parent="1">
          <mxGeometry x="40" y="100" width="60" height="20" as="geometry" />
        </mxCell>
        <mxCell id="zPxOFNK9UEFsvBm9alW0-45" value="Resulting colour" style="text;html=1;align=center;verticalAlign=middle;whiteSpace=wrap;rounded=0;" vertex="1" parent="1">
          <mxGeometry x="710" y="235" width="60" height="30" as="geometry" />
        </mxCell>
        <mxCell id="zPxOFNK9UEFsvBm9alW0-48" value="" style="rounded=0;whiteSpace=wrap;html=1;" vertex="1" parent="1">
          <mxGeometry x="90.66" y="260" width="29.99" height="30" as="geometry" />
        </mxCell>
        <mxCell id="zPxOFNK9UEFsvBm9alW0-47" value="" style="sketch=0;outlineConnect=0;fontColor=#232F3E;gradientColor=none;strokeColor=#232F3E;fillColor=#ffffff;dashed=0;verticalLabelPosition=bottom;verticalAlign=top;align=center;html=1;fontSize=12;fontStyle=0;aspect=fixed;shape=mxgraph.aws4.resourceIcon;resIcon=mxgraph.aws4.bucket;rotation=-45;" vertex="1" parent="1">
          <mxGeometry x="96.50999999999998" y="265.87" width="18.27" height="18.27" as="geometry" />
        </mxCell>
        <mxCell id="zPxOFNK9UEFsvBm9alW0-49" value="" style="verticalLabelPosition=bottom;verticalAlign=top;html=1;shape=mxgraph.basic.drop;strokeWidth=0.5;strokeColor=#2B2B2B;" vertex="1" parent="1">
          <mxGeometry x="97" y="277.14" width="3" height="7" as="geometry" />
        </mxCell>
        <mxCell id="zPxOFNK9UEFsvBm9alW0-50" value="Import" style="text;html=1;align=center;verticalAlign=middle;whiteSpace=wrap;rounded=0;" vertex="1" parent="1">
          <mxGeometry x="720" y="690" width="40" height="20" as="geometry" />
        </mxCell>
        <mxCell id="zPxOFNK9UEFsvBm9alW0-51" value="" style="rounded=0;whiteSpace=wrap;html=1;" vertex="1" parent="1">
          <mxGeometry x="50" y="220" width="30" height="30" as="geometry" />
        </mxCell>
        <mxCell id="zPxOFNK9UEFsvBm9alW0-52" value="" style="sketch=0;pointerEvents=1;shadow=0;dashed=0;html=1;strokeColor=none;fillColor=#505050;labelPosition=center;verticalLabelPosition=bottom;verticalAlign=top;outlineConnect=0;align=center;shape=mxgraph.office.concepts.writing_pen;" vertex="1" parent="1">
          <mxGeometry x="52.67000000000001" y="223.88" width="24.66" height="22.25" as="geometry" />
        </mxCell>
        <mxCell id="zPxOFNK9UEFsvBm9alW0-54" value="" style="rounded=0;whiteSpace=wrap;html=1;" vertex="1" parent="1">
          <mxGeometry x="90.66" y="220" width="28.65" height="30" as="geometry" />
        </mxCell>
        <mxCell id="zPxOFNK9UEFsvBm9alW0-53" value="" style="shape=image;verticalLabelPosition=bottom;labelBackgroundColor=default;verticalAlign=top;aspect=fixed;imageAspect=0;image=https://static.vecteezy.com/system/resources/previews/024/202/840/original/image-of-an-eraser-for-erasing-a-pencil-black-outline-doodle-logo-school-supplies-for-drawing-vector.jpg;clipPath=inset(16% 13.33% 12% 18%);rotation=-90;" vertex="1" parent="1">
          <mxGeometry x="93.75999999999999" y="223.23000000000002" width="22.45" height="23.54" as="geometry" />
        </mxCell>
        <mxCell id="zPxOFNK9UEFsvBm9alW0-60" value="" style="rounded=0;whiteSpace=wrap;html=1;" vertex="1" parent="1">
          <mxGeometry x="50.33" y="260" width="29.33" height="30" as="geometry" />
        </mxCell>
        <mxCell id="zPxOFNK9UEFsvBm9alW0-59" value="" style="shape=image;verticalLabelPosition=bottom;labelBackgroundColor=default;verticalAlign=top;aspect=fixed;imageAspect=0;image=https://static.vecteezy.com/system/resources/previews/005/192/063/original/dropper-linear-icon-pipette-thin-line-illustration-nasal-or-eye-drops-contour-symbol-isolated-outline-drawing-vector.jpg;clipPath=inset(10.67% 17% 11% 14.67%);" vertex="1" parent="1">
          <mxGeometry x="53.74999999999999" y="262.5" width="21.81" height="25" as="geometry" />
        </mxCell>
        <mxCell id="zPxOFNK9UEFsvBm9alW0-62" value="Canvas" style="rounded=0;whiteSpace=wrap;html=1;" vertex="1" parent="1">
          <mxGeometry x="145" y="223.88" width="520" height="476.12" as="geometry" />
        </mxCell>
        <mxCell id="zPxOFNK9UEFsvBm9alW0-64" value="" style="rounded=0;whiteSpace=wrap;html=1;" vertex="1" parent="1">
          <mxGeometry x="40" y="690" width="90" height="30" as="geometry" />
        </mxCell>
        <mxCell id="zPxOFNK9UEFsvBm9alW0-63" value="Width x Height" style="text;html=1;align=center;verticalAlign=middle;whiteSpace=wrap;rounded=0;" vertex="1" parent="1">
          <mxGeometry x="35.17" y="690" width="99.67" height="30" as="geometry" />
        </mxCell>
      </root>
    </mxGraphModel>
  </diagram>
</mxfile>
